<?xml version="1.0" encoding="iso-8859-1"?>
<!-- Uploaded to: SVG Repo, www.svgrepo.com, Generator: SVG Repo Mixer Tools -->
<svg height="800px" width="800px" version="1.1" id="Layer_1" xmlns="http://www.w3.org/2000/svg" xmlns:xlink="http://www.w3.org/1999/xlink" 
	 viewBox="0 0 508 508" xml:space="preserve">
<circle style="fill:#324A5E;" cx="254" cy="254" r="254"/>
<path style="fill:#E6E9EE;" d="M414.7,370.2H130.5c-0.8,0-1.4-0.6-1.4-1.4V212.3c0-0.8,0.6-1.4,1.4-1.4h284.1c0.8,0,1.4,0.6,1.4,1.4
	v156.4C416.1,369.5,415.5,370.2,414.7,370.2z"/>
<path style="fill:#CED5E0;" d="M145,349.3V231.8c2.8,0,5-2.2,5-5h245.2c0,2.8,2.2,5,5,5v117.5c-2.8,0-5,2.2-5,5H150
	C150,351.5,147.8,349.3,145,349.3z"/>
<g>
	<ellipse style="fill:#E6E9EE;" cx="272.6" cy="290.6" rx="46.7" ry="67.5"/>
	<circle style="fill:#E6E9EE;" cx="357.9" cy="290.6" r="20.4"/>
	<circle style="fill:#E6E9EE;" cx="187.3" cy="290.6" r="20.4"/>
</g>
<path style="fill:#4CDBC4;" d="M379.5,232.8L130.4,369.5c-0.7,0.4-1.5,0.1-1.9-0.6L53.2,231.8c-0.4-0.7-0.1-1.5,0.6-1.9L302.9,93.2
	c0.7-0.4,1.5-0.1,1.9,0.6L380,230.9C380.4,231.6,380.2,232.4,379.5,232.8z"/>
<path style="fill:#2C9984;" d="M133,344.2l-56.5-103c2.4-1.3,3.3-4.4,2-6.8l215-118c1.3,2.4,4.4,3.3,6.8,2l56.5,103
	c-2.4,1.3-3.3,4.4-2,6.8l-215,118C138.5,343.8,135.4,342.9,133,344.2z"/>
<g>
	
		<ellipse transform="matrix(-0.481 -0.8767 0.8767 -0.481 117.9425 532.629)" style="fill:#4CDBC4;" cx="216.622" cy="231.405" rx="67.499" ry="46.699"/>
	<circle style="fill:#4CDBC4;" cx="291.4" cy="190.3" r="20.4"/>
	<circle style="fill:#4CDBC4;" cx="141.8" cy="272.4" r="20.4"/>
</g>
</svg>